<?xml version="1.0" encoding="UTF-8"?>
<svg xmlns="http://www.w3.org/2000/svg" width="1300" height="459" viewBox="0 0 1300 459" role="img">
<style>
  text { font-family: Arial, Helvetica, sans-serif; fill: #1F2933; }
  .title { font-size: 22px; font-weight: 700; }
  .subtitle { font-size: 13px; fill: #667085; }
  .axis { stroke: #344054; stroke-width: 1.2; shape-rendering: crispEdges; }
  .grid { stroke: #D0D5DD; stroke-width: 0.9; shape-rendering: crispEdges; }
  .tick { font-size: 12px; fill: #667085; }
  .label { font-size: 14px; }
  .small { font-size: 12px; fill: #667085; }
  .value { font-size: 13px; font-weight: 700; }
</style>
<rect width="100%" height="100%" fill="white"/>
<text x="55" y="58" class="title">Figure 3. Prompt effect by model</text>
<text x="55" y="87" class="subtitle">Common-panel analysis; each point is the paired absolute reduction in unsafe-overconfidence labels.</text>
<line x1="330.0" y1="98" x2="330.0" y2="362" class="grid"/>
<text x="330.0" y="389" text-anchor="middle" class="tick">-10</text>
<line x1="413.8" y1="98" x2="413.8" y2="362" class="grid"/>
<text x="413.8" y="389" text-anchor="middle" class="tick">0</text>
<line x1="497.7" y1="98" x2="497.7" y2="362" class="grid"/>
<text x="497.7" y="389" text-anchor="middle" class="tick">10</text>
<line x1="581.5" y1="98" x2="581.5" y2="362" class="grid"/>
<text x="581.5" y="389" text-anchor="middle" class="tick">20</text>
<line x1="665.4" y1="98" x2="665.4" y2="362" class="grid"/>
<text x="665.4" y="389" text-anchor="middle" class="tick">30</text>
<line x1="749.2" y1="98" x2="749.2" y2="362" class="grid"/>
<text x="749.2" y="389" text-anchor="middle" class="tick">40</text>
<line x1="833.1" y1="98" x2="833.1" y2="362" class="grid"/>
<text x="833.1" y="389" text-anchor="middle" class="tick">50</text>
<line x1="413.8" y1="98" x2="413.8" y2="362" stroke="#344054" stroke-width="1.4"/>
<text x="602.5" y="419" text-anchor="middle" class="label">Risk difference (percentage points)</text>
<text x="55" y="135" class="label">Grok 4.3</text>
<text x="55" y="157" class="small">n=300 paired items</text>
<line x1="430.6" y1="130" x2="503.3" y2="130" stroke="#475467" stroke-width="3" stroke-linecap="round"/>
<line x1="430.6" y1="122" x2="430.6" y2="138" stroke="#475467" stroke-width="2"/>
<line x1="503.3" y1="122" x2="503.3" y2="138" stroke="#475467" stroke-width="2"/>
<circle cx="466.9" cy="130" r="8" fill="#335C81" stroke="white" stroke-width="2"/>
<text x="940" y="135" class="value">6.3 pp</text>
<text x="1045" y="135" class="small">(2.0, 10.7)</text>
<text x="55" y="203" class="label">GPT-5.5</text>
<text x="55" y="225" class="small">n=300 paired items</text>
<line x1="525.6" y1="198" x2="626.3" y2="198" stroke="#475467" stroke-width="3" stroke-linecap="round"/>
<line x1="525.6" y1="190" x2="525.6" y2="206" stroke="#475467" stroke-width="2"/>
<line x1="626.3" y1="190" x2="626.3" y2="206" stroke="#475467" stroke-width="2"/>
<circle cx="575.9" cy="198" r="8" fill="#335C81" stroke="white" stroke-width="2"/>
<text x="940" y="203" class="value">19.3 pp</text>
<text x="1045" y="203" class="small">(13.3, 25.3)</text>
<text x="55" y="271" class="label">Gemini 3.5 Flash</text>
<text x="55" y="293" class="small">n=300 paired items</text>
<line x1="615.1" y1="266" x2="718.5" y2="266" stroke="#475467" stroke-width="3" stroke-linecap="round"/>
<line x1="615.1" y1="258" x2="615.1" y2="274" stroke="#475467" stroke-width="2"/>
<line x1="718.5" y1="258" x2="718.5" y2="274" stroke="#475467" stroke-width="2"/>
<circle cx="665.4" cy="266" r="8" fill="#335C81" stroke="white" stroke-width="2"/>
<text x="940" y="271" class="value">30.0 pp</text>
<text x="1045" y="271" class="small">(24.0, 36.3)</text>
<text x="55" y="339" class="label">Claude Opus 4.8</text>
<text x="55" y="361" class="small">n=300 paired items</text>
<line x1="724.1" y1="334" x2="824.7" y2="334" stroke="#475467" stroke-width="3" stroke-linecap="round"/>
<line x1="724.1" y1="326" x2="724.1" y2="342" stroke="#475467" stroke-width="2"/>
<line x1="824.7" y1="326" x2="824.7" y2="342" stroke="#475467" stroke-width="2"/>
<circle cx="774.4" cy="334" r="8" fill="#335C81" stroke="white" stroke-width="2"/>
<text x="940" y="339" class="value">43.0 pp</text>
<text x="1045" y="339" class="small">(37.0, 49.0)</text>
<text x="940" y="92" class="small">Effect</text>
<text x="1045" y="92" class="small">95% CI</text>
<text x="55.0" y="431.0" text-anchor="start" class="small"><tspan x="55.0" dy="0">Positive values favor the evidence-sufficiency wrapper unless otherwise stated. Intervals are paired bootstrap 95% CIs.</tspan></text>
</svg>
